<?xml version="1.0" standalone="no"?>
<!DOCTYPE svg PUBLIC "-//W3C//DTD SVG 20010904//EN"
 "http://www.w3.org/TR/2001/REC-SVG-20010904/DTD/svg10.dtd">
<svg version="1.0" xmlns="http://www.w3.org/2000/svg"
 width="640.000000pt" height="1067.000000pt" viewBox="0 0 640.000000 1067.000000"
 preserveAspectRatio="xMidYMid meet">

<g transform="translate(0.000000,1067.000000) scale(0.100000,-0.100000)"
fill="#000000" stroke="none">
<path d="M472 10444 c-29 -7 -67 -21 -84 -30 -55 -29 -134 -118 -160 -181
l-23 -58 0 -4840 0 -4840 24 -58 c32 -81 117 -166 196 -198 l60 -24 2680 -3
c1965 -2 2696 0 2740 8 120 23 222 107 268 220 l22 55 0 4840 0 4840 -24 60
c-27 67 -103 151 -167 183 -21 11 -63 25 -92 31 -38 8 -783 11 -2720 10 -2270
0 -2675 -2 -2720 -15z m5499 -57 c66 -33 117 -85 151 -155 l33 -67 0 -4830 0
-4830 -26 -55 c-36 -78 -80 -124 -151 -160 l-61 -30 -2717 0 -2717 0 -61 30
c-65 33 -109 76 -144 143 l-23 42 -3 4839 c-1 3135 1 4851 8 4875 23 85 107
176 193 208 24 9 688 11 2757 10 2610 -2 2727 -3 2761 -20z"/>
<path d="M2275 10213 c-36 -9 -41 -23 -8 -23 70 0 128 -91 104 -163 -16 -46
-63 -87 -102 -87 -41 0 -28 -17 19 -25 54 -9 110 13 146 58 73 91 15 232 -100
242 -21 2 -48 1 -59 -2z"/>
<path d="M2675 10201 l-40 -18 32 -17 c82 -42 82 -160 1 -202 l-32 -16 30 -16
c38 -20 111 -20 151 1 45 24 73 74 73 133 0 64 -28 110 -83 134 -52 24 -81 24
-132 1z"/>
<path d="M3130 10198 c-58 -30 -83 -76 -77 -144 6 -84 63 -138 147 -138 84 0
141 54 147 138 6 68 -19 114 -77 144 -24 12 -56 22 -70 22 -14 0 -46 -10 -70
-22z"/>
<path d="M3610 10209 c-55 -22 -100 -85 -100 -139 0 -109 108 -185 208 -145
41 17 56 35 28 35 -8 0 -26 14 -40 31 -19 23 -26 42 -26 74 0 32 7 51 26 74
14 17 32 31 40 31 25 0 15 16 -21 33 -40 19 -77 21 -115 6z"/>
<path d="M4024 10206 c-39 -17 -71 -57 -85 -107 -10 -32 -9 -46 5 -84 26 -66
74 -99 142 -99 30 0 59 5 66 12 9 9 5 12 -19 12 -70 0 -127 92 -103 165 15 45
63 85 103 85 46 0 21 19 -33 25 -28 3 -57 0 -76 -9z"/>
<path d="M545 10146 c-14 -29 -33 -47 -62 -62 -40 -21 -41 -22 -19 -28 38 -9
85 -54 94 -89 l9 -32 15 36 c17 39 58 76 95 85 23 6 22 8 -15 24 -39 18 -82
62 -82 86 0 28 -16 19 -35 -20z"/>
<path d="M5820 10164 c-16 -41 -39 -64 -84 -84 l-38 -18 30 -7 c33 -7 86 -59
97 -95 6 -18 9 -16 28 22 15 29 35 49 62 63 l40 20 -40 20 c-28 14 -47 33 -62
64 l-22 44 -11 -29z"/>
<path d="M992 10098 c-15 -15 -15 -51 0 -66 28 -28 78 -7 78 33 0 27 -18 45
-45 45 -12 0 -26 -5 -33 -12z"/>
<path d="M1275 10094 c-26 -27 -3 -73 37 -74 18 0 48 26 48 41 0 44 -53 64
-85 33z"/>
<path d="M1562 10098 c-28 -28 -7 -78 33 -78 27 0 45 18 45 45 0 27 -18 45
-45 45 -12 0 -26 -5 -33 -12z"/>
<path d="M1840 10091 c-5 -11 -10 -24 -10 -30 0 -16 30 -41 50 -41 22 0 50 25
50 45 0 41 -71 61 -90 26z"/>
<path d="M4492 10098 c-7 -7 -12 -21 -12 -33 0 -12 5 -26 12 -33 7 -7 21 -12
33 -12 12 0 26 5 33 12 7 7 12 21 12 33 0 12 -5 26 -12 33 -7 7 -21 12 -33 12
-12 0 -26 -5 -33 -12z"/>
<path d="M4770 10091 c-5 -11 -10 -24 -10 -30 0 -16 30 -41 50 -41 22 0 50 25
50 45 0 41 -71 61 -90 26z"/>
<path d="M5062 10098 c-7 -7 -12 -21 -12 -33 0 -12 5 -26 12 -33 7 -7 21 -12
33 -12 12 0 26 5 33 12 7 7 12 21 12 33 0 12 -5 26 -12 33 -7 7 -21 12 -33 12
-12 0 -26 -5 -33 -12z"/>
<path d="M5340 10090 c-27 -51 36 -95 72 -50 22 27 22 34 2 54 -22 22 -61 20
-74 -4z"/>
<path d="M537 9632 c-22 -24 -21 -38 2 -61 40 -40 97 8 66 55 -18 29 -46 31
-68 6z"/>
<path d="M5800 9630 c-39 -39 13 -96 59 -64 26 19 27 45 3 67 -24 22 -38 21
-62 -3z"/>
<path d="M530 9340 c-27 -50 36 -95 71 -51 26 31 11 65 -29 69 -23 2 -34 -2
-42 -18z"/>
<path d="M5791 9338 c-15 -41 14 -74 54 -64 29 7 43 49 25 71 -20 24 -69 19
-79 -7z"/>
<path d="M1576 9214 c-3 -9 -6 -27 -6 -40 0 -81 -95 -172 -198 -189 -63 -10
-53 -35 19 -50 95 -19 160 -84 178 -179 10 -54 14 -61 36 -53 9 4 15 19 15 37
0 95 82 179 193 198 60 11 63 38 5 47 -116 20 -175 83 -203 218 -6 29 -29 36
-39 11z m95 -210 c13 -12 32 -26 42 -31 16 -8 14 -13 -22 -36 -23 -15 -53 -45
-67 -67 -15 -22 -28 -40 -29 -40 -2 0 -12 16 -24 35 -11 19 -41 49 -65 67
l-46 32 28 16 c33 20 102 96 102 112 0 6 13 -7 29 -28 15 -21 39 -49 52 -60z"/>
<path d="M3187 9223 c-2 -4 -8 -26 -12 -48 -17 -96 -81 -163 -178 -185 -65
-16 -67 -17 -60 -35 3 -9 18 -15 37 -15 99 -1 206 -113 206 -217 0 -16 6 -23
20 -23 14 0 20 7 20 21 0 103 109 218 206 219 19 0 34 6 37 15 7 18 5 19 -60
35 -98 23 -154 81 -178 184 -10 46 -27 68 -38 49z m23 -136 c0 -21 66 -92 100
-109 l30 -15 -44 -28 c-24 -15 -54 -45 -67 -66 -13 -21 -26 -38 -29 -38 -3 0
-16 17 -29 38 -13 21 -41 49 -62 62 -38 24 -49 39 -29 39 17 0 110 97 110 115
0 8 5 15 10 15 6 0 10 -6 10 -13z"/>
<path d="M4797 9223 c-3 -4 -8 -26 -11 -48 -16 -92 -97 -175 -187 -189 -52 -8
-60 -13 -52 -31 3 -9 18 -15 37 -15 43 -1 105 -31 143 -71 33 -35 63 -104 63
-145 0 -17 6 -24 20 -24 14 0 20 7 20 24 0 41 30 110 63 145 38 40 100 70 143
71 38 0 52 25 24 40 -11 6 -20 9 -20 6 0 -12 -94 25 -125 49 -41 31 -64 71
-80 139 -10 47 -27 68 -38 49z m46 -174 c15 -22 43 -49 62 -60 40 -24 44 -35
16 -44 -20 -6 -93 -80 -105 -106 -5 -12 -7 -12 -12 0 -12 26 -78 92 -107 107
l-29 15 46 29 c25 16 55 45 68 64 13 20 25 36 28 35 3 0 17 -18 33 -40z"/>
<path d="M535 9060 c-27 -30 -7 -70 34 -70 41 0 59 32 36 66 -19 29 -46 31
-70 4z"/>
<path d="M5796 9059 c-18 -26 -8 -59 21 -70 26 -9 63 15 63 41 0 10 -7 26 -16
34 -22 22 -50 20 -68 -5z"/>
<path d="M541 8784 c-26 -19 -27 -45 -3 -67 25 -23 48 -21 66 4 30 43 -20 93
-63 63z"/>
<path d="M5814 8790 c-51 -20 -24 -100 29 -86 27 6 46 44 32 65 -11 19 -40 29
-61 21z"/>
<path d="M536 8494 c-19 -18 -20 -28 -6 -55 16 -28 68 -26 79 4 20 52 -34 90
-73 51z"/>
<path d="M5796 8489 c-15 -22 -11 -48 8 -61 21 -14 55 -8 66 11 14 27 13 37
-6 55 -22 22 -50 20 -68 -5z"/>
<path d="M540 8210 c-11 -11 -20 -26 -20 -33 0 -18 32 -47 53 -47 15 0 47 35
47 52 0 11 -38 48 -50 48 -5 0 -19 -9 -30 -20z"/>
<path d="M5808 8218 c-24 -20 -28 -44 -12 -67 18 -25 46 -27 68 -5 21 21 20
40 -4 64 -23 23 -31 24 -52 8z"/>
<path d="M3576 8114 c-25 -24 -20 -61 10 -81 24 -15 29 -15 53 -2 49 28 32 99
-24 99 -13 0 -31 -7 -39 -16z"/>
<path d="M2609 8051 c-80 -81 33 -199 116 -121 37 35 35 90 -6 124 -40 34 -74
33 -110 -3z"/>
<path d="M4146 8005 c-28 -147 -163 -284 -298 -302 -42 -6 -42 -23 0 -23 41 0
126 -44 177 -91 57 -53 94 -114 115 -193 l17 -60 6 43 c8 62 52 144 105 197
50 51 150 104 194 104 47 0 40 17 -10 24 -128 17 -266 158 -291 299 l-7 42 -8
-40z"/>
<path d="M529 7919 c-18 -34 3 -69 41 -69 32 0 53 30 42 60 -13 36 -65 41 -83
9z"/>
<path d="M5796 7918 c-13 -19 -14 -25 -2 -43 20 -31 63 -32 77 -2 25 54 -41
94 -75 45z"/>
<path d="M2680 7314 c-318 -297 -454 -431 -453 -444 3 -20 297 -1120 316
-1183 9 -26 119 -163 357 -442 308 -362 346 -403 358 -387 8 9 44 60 81 112
37 52 233 326 436 609 l368 515 -15 65 c-9 36 -58 248 -109 471 l-92 405 -388
350 c-213 192 -391 350 -396 352 -4 1 -213 -190 -463 -423z m529 208 c29 -48
64 -103 76 -122 13 -19 96 -152 185 -295 90 -143 171 -272 182 -288 15 -21 16
-28 6 -31 -7 -2 -143 -11 -303 -20 -159 -10 -324 -20 -366 -23 l-76 -6 -16 88
-16 88 129 337 c72 185 130 342 130 348 0 27 18 7 69 -76z m-277 -277 l-119
-308 -94 -73 c-52 -40 -101 -73 -109 -74 -12 0 -265 87 -278 96 -2 1 25 28 60
60 117 110 223 209 358 334 74 69 171 159 215 202 44 42 81 75 83 74 1 -2 -51
-142 -116 -311z m588 60 c85 -77 194 -175 242 -218 l87 -79 -54 -86 c-30 -48
-58 -88 -62 -89 -5 -2 -26 25 -46 59 -21 35 -110 178 -198 318 -88 140 -163
260 -166 265 -9 14 20 -11 197 -170z m370 -412 c0 -8 38 -182 85 -386 47 -203
83 -372 80 -375 -6 -6 -248 -53 -252 -48 -2 1 -10 151 -19 332 l-17 329 54 86
c51 82 69 98 69 62z m-1056 -117 l13 -64 -41 -66 c-23 -36 -43 -65 -46 -65
-12 -1 -92 151 -84 159 25 24 139 108 142 105 3 -2 10 -33 16 -69z m-263 -54
c19 -8 45 -42 88 -117 l61 -107 0 -164 c0 -90 -3 -164 -7 -164 -4 0 -64 33
-135 73 -104 59 -129 77 -137 102 -6 17 -35 122 -65 235 -30 113 -58 213 -61
222 -6 15 94 -17 256 -80z m1129 -39 c0 -21 7 -166 15 -322 8 -157 14 -285 12
-286 -1 -1 -212 12 -469 29 l-468 30 0 180 0 180 58 88 57 88 45 1 c42 1 726
45 743 48 4 0 7 -16 7 -36z m-1103 -531 c139 -81 115 -43 273 -432 62 -151
143 -350 181 -443 38 -92 69 -170 69 -173 0 -3 -114 127 -252 290 l-253 296
-47 177 c-26 98 -59 217 -72 266 -13 48 -23 87 -21 87 2 0 57 -31 122 -68z
m638 -117 c209 -14 397 -25 419 -25 27 0 37 -4 33 -13 -4 -10 -523 -703 -546
-729 -5 -6 -271 627 -329 783 -5 12 -6 12 423 -16z m778 2 c-45 -76 -758
-1056 -763 -1050 -13 13 -82 192 -78 201 1 4 141 190 310 413 l307 406 108 20
c59 11 112 21 116 22 4 0 4 -5 0 -12z"/>
<path d="M542 7644 c-12 -8 -22 -24 -22 -34 0 -17 34 -50 52 -50 11 0 48 38
48 50 0 12 -37 50 -48 50 -4 0 -18 -7 -30 -16z"/>
<path d="M5808 7649 c-26 -14 -23 -65 3 -79 16 -9 26 -8 45 5 30 19 31 49 2
69 -26 19 -27 19 -50 5z"/>
<path d="M1920 7585 c0 -24 -35 -87 -62 -111 -31 -29 -82 -54 -110 -54 -16 -1
-7 -7 26 -20 76 -30 146 -106 146 -160 0 -30 16 -16 23 20 10 45 81 116 140
139 34 13 44 20 29 20 -63 2 -156 84 -168 148 -6 33 -24 46 -24 18z"/>
<path d="M4786 7504 c-22 -21 -20 -50 4 -74 24 -24 38 -25 68 -4 24 17 30 62
10 82 -17 17 -64 15 -82 -4z"/>
<path d="M529 7349 c-16 -30 3 -69 33 -69 42 0 62 28 47 68 -11 30 -64 31 -80
1z"/>
<path d="M5795 7350 c-17 -18 -17 -21 -1 -45 22 -33 62 -34 77 -1 24 53 -36
90 -76 46z"/>
<path d="M537 7072 c-10 -10 -17 -24 -17 -30 0 -15 36 -52 50 -52 13 0 50 37
50 50 0 15 -38 50 -53 50 -8 0 -21 -8 -30 -18z"/>
<path d="M5812 7083 c-22 -9 -34 -41 -23 -62 14 -25 45 -32 70 -14 26 18 27
45 3 66 -19 17 -28 19 -50 10z"/>
<path d="M4573 6815 c-32 -22 -43 -65 -28 -102 29 -69 118 -72 153 -6 19 35
14 63 -17 94 -33 32 -74 38 -108 14z"/>
<path d="M1390 6790 c-29 -29 -26 -74 7 -100 32 -25 69 -20 96 12 22 27 22 49
-4 82 -25 32 -70 35 -99 6z"/>
<path d="M530 6780 c-27 -50 36 -95 71 -51 26 31 11 65 -29 69 -23 2 -34 -2
-42 -18z"/>
<path d="M5791 6778 c-15 -40 14 -74 54 -64 52 13 38 86 -16 86 -22 0 -32 -6
-38 -22z"/>
<path d="M537 6502 c-22 -24 -21 -38 2 -61 40 -40 97 8 66 55 -18 29 -46 31
-68 6z"/>
<path d="M5796 6499 c-18 -26 -8 -59 21 -70 25 -9 63 15 63 40 0 22 -30 51
-53 51 -9 0 -23 -10 -31 -21z"/>
<path d="M5097 6492 c-20 -22 -22 -63 -5 -80 17 -17 64 -15 82 4 22 21 20 50
-4 74 -25 25 -52 26 -73 2z"/>
<path d="M1797 6412 c-14 -85 -94 -167 -200 -203 -29 -10 -43 -18 -31 -19 11
0 49 -14 83 -31 71 -35 126 -99 144 -166 13 -52 23 -54 31 -9 15 81 105 170
199 198 l47 14 -46 12 c-95 26 -187 119 -200 204 -8 48 -20 49 -27 0z"/>
<path d="M530 6210 c-27 -50 36 -95 71 -51 26 31 11 65 -29 69 -23 2 -34 -2
-42 -18z"/>
<path d="M5791 6208 c-15 -40 14 -74 54 -64 52 13 38 86 -16 86 -22 0 -32 -6
-38 -22z"/>
<path d="M4615 6145 c-19 -70 -96 -145 -150 -145 -8 0 -15 -4 -15 -10 0 -5 7
-10 16 -10 52 0 130 -77 149 -145 l8 -30 7 30 c3 17 12 40 18 51 18 34 81 84
113 91 16 3 29 9 29 13 0 4 -13 10 -29 13 -32 7 -95 57 -113 91 -6 11 -15 35
-18 51 l-7 30 -8 -30z"/>
<path d="M536 5934 c-30 -30 -10 -74 34 -74 40 0 58 32 35 66 -18 28 -46 31
-69 8z"/>
<path d="M5801 5936 c-7 -8 -11 -27 -9 -43 2 -23 9 -29 33 -31 46 -6 71 40 39
72 -19 20 -48 20 -63 2z"/>
<path d="M528 5635 c-9 -21 -8 -28 7 -45 24 -27 51 -25 70 4 23 34 5 66 -36
66 -22 0 -32 -6 -41 -25z"/>
<path d="M5790 5639 c-9 -16 -8 -26 5 -45 19 -29 46 -31 70 -4 15 17 16 24 7
45 -15 32 -66 35 -82 4z"/>
<path d="M1536 5559 c-50 -39 -22 -119 43 -119 33 0 71 39 71 72 0 24 -44 68
-68 68 -11 0 -31 -9 -46 -21z"/>
<path d="M1982 5408 c-186 -342 -222 -765 -96 -1120 167 -469 545 -797 1044
-904 119 -26 401 -26 520 -1 280 60 511 182 705 372 439 429 540 1103 248
1643 -25 45 -45 82 -46 82 -1 0 -2 -82 -3 -183 -1 -165 -3 -191 -28 -282 -32
-119 -106 -277 -175 -378 -69 -99 -217 -242 -324 -311 -103 -67 -240 -127
-364 -158 -76 -20 -114 -23 -278 -22 -174 0 -198 2 -288 27 -111 30 -273 104
-368 167 -87 59 -239 208 -298 294 -149 217 -216 444 -209 709 2 75 3 137 2
137 -1 0 -20 -33 -42 -72z m79 -808 c39 -21 16 -90 -30 -90 -16 0 -41 30 -41
50 0 20 25 50 41 50 6 0 19 -5 30 -10z m2324 -14 c30 -45 -16 -91 -61 -61 -28
18 -31 41 -7 67 22 25 49 23 68 -6z m-2065 -292 c29 -18 66 -71 56 -82 -4 -3
-12 0 -18 6 -15 15 -60 15 -93 0 -45 -21 -68 -85 -45 -129 15 -27 -2 -24 -39
6 -40 34 -56 84 -41 129 11 33 42 69 70 79 30 11 83 7 110 -9z m1870 1 c78
-40 77 -174 0 -215 -27 -15 -33 -9 -21 22 29 78 -65 158 -140 118 -23 -13 -24
-8 -4 30 29 55 105 76 165 45z m-1441 -294 c36 -26 40 -41 11 -41 -11 0 -34
-13 -52 -29 -29 -26 -33 -36 -33 -79 0 -38 5 -56 23 -74 29 -32 28 -36 -10
-43 -49 -9 -107 15 -141 58 -25 30 -31 47 -31 87 0 57 20 91 75 128 42 30 111
26 158 -7z m1041 11 c110 -55 106 -214 -7 -264 -32 -14 -55 -18 -84 -13 -21 4
-39 8 -39 10 0 2 11 16 24 30 32 35 40 79 20 122 -17 34 -58 63 -90 63 -15 0
-15 2 2 21 42 48 115 61 174 31z m-512 -129 c15 -11 35 -40 46 -65 60 -146
-111 -265 -233 -162 -75 63 -57 200 32 240 42 19 121 13 155 -13z"/>
<path d="M536 5365 c-19 -19 -20 -29 -6 -56 16 -28 68 -26 79 4 18 46 -38 86
-73 52z"/>
<path d="M5796 5359 c-21 -30 -2 -69 34 -69 47 0 66 42 34 74 -22 22 -50 20
-68 -5z"/>
<path d="M4782 5353 c-17 -6 -42 -57 -42 -83 0 -12 13 -35 29 -51 35 -35 77
-38 115 -8 58 46 19 150 -56 148 -18 0 -39 -3 -46 -6z"/>
<path d="M3820 5122 c-50 -16 -68 -83 -31 -116 28 -25 79 -17 104 16 17 23 18
31 8 57 -13 30 -53 52 -81 43z"/>
<path d="M542 5084 c-27 -19 -28 -45 -2 -69 42 -38 100 25 59 66 -23 23 -28
23 -57 3z"/>
<path d="M5813 5089 c-34 -12 -32 -65 2 -81 21 -9 28 -8 45 7 39 35 1 93 -47
74z"/>
<path d="M2471 5053 c-12 -10 -24 -35 -28 -55 -5 -32 -1 -41 25 -68 21 -20 40
-30 62 -30 73 0 111 104 54 149 -33 26 -84 27 -113 4z"/>
<path d="M529 4789 c-26 -50 35 -93 75 -53 20 19 20 24 0 52 -20 28 -60 29
-75 1z"/>
<path d="M5796 4789 c-24 -34 -3 -69 42 -69 14 0 26 9 33 24 24 53 -41 92 -75
45z"/>
<path d="M1340 4715 c0 -21 5 -35 13 -35 6 0 57 -7 112 -15 107 -15 115 -12
115 32 0 26 -4 27 -129 43 -116 14 -111 15 -111 -25z"/>
<path d="M4888 4723 l-107 -15 6 -32 c3 -17 7 -32 8 -34 4 -5 226 26 232 31 9
10 -8 67 -20 66 -7 -1 -60 -8 -119 -16z"/>
<path d="M3022 4525 c-30 -22 -30 -69 2 -90 48 -32 104 22 76 74 -6 12 -15 21
-20 21 -4 0 -14 2 -22 5 -7 3 -23 -2 -36 -10z"/>
<path d="M537 4512 c-10 -10 -17 -26 -17 -35 0 -15 35 -47 52 -47 11 0 48 38
48 50 0 15 -38 50 -53 50 -8 0 -21 -8 -30 -18z"/>
<path d="M5800 4510 c-11 -11 -20 -24 -20 -30 0 -15 38 -50 53 -50 18 0 47 32
47 52 0 17 -31 48 -48 48 -7 0 -21 -9 -32 -20z"/>
<path d="M1445 4305 c-44 -7 -101 -16 -127 -20 -47 -6 -47 -6 -41 -38 3 -18 7
-33 8 -35 3 -3 318 39 323 44 2 1 1 16 -3 33 -6 28 -10 31 -43 30 -20 -1 -73
-7 -117 -14z"/>
<path d="M4780 4287 l0 -34 157 -21 c167 -24 173 -23 173 26 0 12 -1 22 -3 22
-1 0 -65 9 -142 20 -190 27 -185 27 -185 -13z"/>
<path d="M530 4220 c-16 -29 -3 -59 27 -66 46 -12 77 52 39 78 -21 14 -55 8
-66 -12z"/>
<path d="M5796 4218 c-13 -19 -14 -25 -2 -43 20 -31 63 -32 77 -2 25 54 -41
94 -75 45z"/>
<path d="M537 3942 c-10 -10 -17 -26 -17 -35 0 -15 35 -47 52 -47 11 0 48 38
48 50 0 15 -38 50 -53 50 -8 0 -21 -8 -30 -18z"/>
<path d="M5800 3940 c-11 -11 -20 -24 -20 -30 0 -12 37 -50 48 -50 17 0 52 32
52 49 0 20 -30 51 -48 51 -7 0 -21 -9 -32 -20z"/>
<path d="M1710 3917 c-25 -13 -105 -49 -177 -81 -73 -33 -133 -63 -133 -67 0
-20 25 -59 34 -55 9 3 356 157 363 161 7 4 -23 65 -32 64 -5 0 -30 -10 -55
-22z"/>
<path d="M4600 3914 c-6 -14 -10 -28 -10 -32 0 -7 370 -176 374 -170 7 11 26
61 24 63 -9 5 -369 165 -373 165 -3 0 -10 -12 -15 -26z"/>
<path d="M530 3650 c-27 -50 36 -95 71 -51 26 31 11 65 -29 69 -23 2 -34 -2
-42 -18z"/>
<path d="M5791 3648 c-20 -52 57 -95 80 -45 16 36 -3 67 -42 67 -22 0 -32 -6
-38 -22z"/>
<path d="M1847 3441 c-93 -77 -171 -142 -174 -145 -10 -10 28 -58 42 -52 8 2
91 69 185 147 l171 142 -22 23 c-13 13 -25 24 -28 24 -3 -1 -82 -63 -174 -139z"/>
<path d="M4334 3555 c-9 -14 -15 -27 -13 -29 2 -2 60 -50 129 -106 69 -57 147
-121 173 -143 l48 -40 24 23 c13 13 22 26 20 31 -8 12 -336 280 -350 285 -8 3
-21 -6 -31 -21z"/>
<path d="M536 3374 c-21 -21 -20 -40 4 -64 39 -39 96 13 64 59 -18 25 -46 27
-68 5z"/>
<path d="M5796 3369 c-30 -43 20 -93 63 -63 25 18 27 46 5 68 -22 22 -50 20
-68 -5z"/>
<path d="M2239 3163 c-56 -87 -118 -182 -138 -211 l-35 -54 24 -19 c14 -10 28
-19 31 -19 4 0 69 95 145 211 l137 211 -24 19 c-13 10 -27 19 -30 19 -4 0 -53
-71 -110 -157z"/>
<path d="M4007 3302 l-27 -19 131 -199 c72 -109 134 -205 138 -213 7 -11 13
-10 37 5 16 10 30 19 31 19 2 1 -50 82 -115 181 -65 98 -127 194 -137 212 -23
37 -22 37 -58 14z"/>
<path d="M2729 3118 c-75 -277 -125 -490 -115 -494 6 -2 22 -5 35 -6 21 -3 26
3 33 32 4 19 34 137 67 262 33 126 56 230 53 232 -4 2 -19 6 -34 10 -25 6 -28
3 -39 -36z"/>
<path d="M3615 3153 c-11 -3 -24 -8 -28 -13 -5 -4 22 -125 59 -269 l67 -262
31 7 c17 3 33 8 35 10 5 4 -133 534 -139 533 -3 -1 -14 -3 -25 -6z"/>
<path d="M3150 2825 l0 -285 35 0 35 0 0 285 0 285 -35 0 -35 0 0 -285z"/>
<path d="M528 3075 c-9 -21 -8 -28 7 -45 24 -27 51 -25 70 4 23 34 5 66 -36
66 -22 0 -32 -6 -41 -25z"/>
<path d="M5791 3078 c-15 -40 14 -74 54 -64 52 13 38 86 -16 86 -22 0 -32 -6
-38 -22z"/>
<path d="M536 2805 c-19 -19 -20 -29 -6 -56 16 -28 68 -26 79 4 18 46 -38 86
-73 52z"/>
<path d="M5796 2799 c-21 -30 -2 -69 34 -69 47 0 66 42 34 74 -22 22 -50 20
-68 -5z"/>
<path d="M541 2524 c-26 -19 -27 -45 -3 -67 25 -23 48 -21 66 4 30 43 -20 93
-63 63z"/>
<path d="M5813 2529 c-27 -10 -32 -59 -8 -79 22 -18 64 -4 71 25 10 40 -23 69
-63 54z"/>
<path d="M536 2234 c-30 -30 -10 -74 34 -74 40 0 58 32 35 66 -18 28 -46 31
-69 8z"/>
<path d="M5796 2229 c-21 -30 -6 -63 30 -67 45 -6 70 41 38 72 -22 22 -50 20
-68 -5z"/>
<path d="M539 1951 c-23 -19 -23 -21 -9 -48 20 -36 53 -41 74 -11 20 29 20 34
-4 58 -25 25 -32 25 -61 1z"/>
<path d="M1575 1946 c-3 -14 -8 -38 -11 -53 -16 -76 -87 -141 -173 -158 -72
-15 -82 -40 -19 -50 53 -9 94 -29 131 -64 36 -33 67 -92 67 -128 0 -37 14 -57
34 -50 10 4 16 18 16 37 0 98 87 186 203 205 36 6 52 32 25 39 -7 2 -35 9 -63
15 -89 22 -151 88 -163 178 -8 55 -37 73 -47 29z m44 -141 c11 -19 41 -49 66
-67 39 -28 43 -33 28 -41 -29 -15 -64 -49 -94 -91 -16 -21 -29 -34 -29 -28 0
16 -69 92 -102 112 l-28 16 45 32 c24 17 54 47 67 66 13 20 24 36 25 36 0 0
10 -16 22 -35z"/>
<path d="M3180 1948 c0 -105 -107 -217 -206 -218 -19 0 -34 -6 -38 -15 -6 -17
-4 -18 64 -35 94 -24 153 -85 175 -184 15 -66 35 -66 50 0 22 99 81 160 175
184 68 17 70 18 64 35 -4 9 -19 15 -38 15 -99 1 -206 113 -206 218 0 15 -6 22
-20 22 -14 0 -20 -7 -20 -22z m35 -127 c6 -20 81 -94 106 -104 11 -5 10 -8 -6
-18 -33 -20 -105 -98 -105 -114 0 -8 -4 -15 -10 -15 -5 0 -10 7 -10 15 0 16
-72 94 -105 114 -16 10 -17 13 -6 18 25 10 100 84 106 104 4 10 10 19 15 19 5
0 11 -9 15 -19z"/>
<path d="M4790 1948 c0 -105 -107 -217 -206 -218 -42 0 -53 -27 -18 -40 14 -6
36 -10 49 -10 33 0 116 -59 139 -99 11 -19 25 -57 31 -85 15 -66 35 -66 50 -1
16 69 39 109 80 140 31 24 125 61 125 49 0 -3 9 0 20 6 28 15 14 40 -24 40
-99 1 -206 113 -206 218 0 15 -6 22 -20 22 -14 0 -20 -7 -20 -22z m30 -118 c0
-17 83 -102 110 -112 l25 -9 -33 -16 c-31 -15 -78 -62 -101 -100 -10 -17 -12
-17 -21 -1 -24 40 -65 80 -99 98 l-36 18 25 10 c27 10 110 95 110 112 0 5 5
10 10 10 6 0 10 -5 10 -10z"/>
<path d="M5800 1950 c-11 -11 -20 -24 -20 -30 0 -15 38 -50 54 -50 20 0 46 28
46 50 0 17 -34 50 -52 50 -5 0 -17 -9 -28 -20z"/>
<path d="M529 1659 c-16 -30 3 -69 33 -69 45 0 66 35 42 69 -20 27 -60 27 -75
0z"/>
<path d="M5796 1659 c-24 -34 -3 -69 42 -69 14 0 26 9 33 24 24 53 -41 92 -75
45z"/>
<path d="M542 1384 c-12 -8 -22 -24 -22 -34 0 -17 34 -50 52 -50 11 0 48 38
48 50 0 12 -37 50 -48 50 -4 0 -18 -7 -30 -16z"/>
<path d="M5800 1380 c-11 -11 -20 -24 -20 -30 0 -12 37 -50 48 -50 18 0 52 33
52 50 0 17 -34 50 -52 50 -5 0 -17 -9 -28 -20z"/>
<path d="M529 1089 c-8 -16 -8 -28 0 -46 23 -50 100 -7 80 45 -11 30 -64 31
-80 1z"/>
<path d="M5804 1102 c-34 -23 -12 -82 32 -82 32 0 51 38 35 69 -12 21 -46 28
-67 13z"/>
<path d="M2275 753 c-36 -9 -41 -23 -8 -23 42 0 90 -41 104 -89 22 -73 -24
-147 -98 -161 l-38 -7 30 -12 c17 -7 48 -10 69 -8 139 19 180 203 62 280 -27
18 -90 28 -121 20z"/>
<path d="M2687 745 c-52 -18 -53 -21 -19 -39 31 -16 62 -69 62 -106 0 -35 -28
-79 -63 -96 l-32 -17 40 -18 c51 -23 80 -23 132 1 55 25 83 70 83 135 0 65
-28 110 -83 135 -50 23 -69 24 -120 5z"/>
<path d="M3135 740 c-54 -28 -78 -63 -82 -124 -6 -68 19 -114 77 -143 56 -29
84 -29 140 0 107 55 108 207 0 264 -53 28 -83 29 -135 3z"/>
<path d="M3614 749 c-42 -12 -91 -69 -100 -115 -9 -51 11 -107 51 -143 46 -40
93 -48 150 -26 44 16 60 35 31 35 -8 0 -26 14 -40 31 -19 23 -26 42 -26 74 0
32 7 51 26 74 14 17 32 31 40 31 27 0 13 18 -26 34 -45 18 -60 18 -106 5z"/>
<path d="M4024 741 c-82 -38 -112 -123 -72 -200 33 -64 67 -85 133 -85 30 0
60 5 67 12 9 9 5 12 -19 12 -41 0 -88 40 -104 87 -24 72 34 163 104 163 43 0
23 17 -28 25 -28 4 -52 0 -81 -14z"/>
<path d="M560 714 c0 -28 -48 -82 -84 -95 l-34 -12 42 -21 c29 -15 48 -34 63
-65 l22 -44 11 29 c16 41 39 64 84 84 l38 18 -30 7 c-32 7 -92 65 -92 90 0 7
-4 17 -10 20 -5 3 -10 -2 -10 -11z"/>
<path d="M5820 704 c-16 -41 -58 -82 -93 -90 l-29 -6 38 -18 c45 -20 68 -43
84 -84 l11 -29 22 44 c15 30 34 50 62 64 l40 20 -40 20 c-28 14 -47 33 -62 64
l-22 44 -11 -29z"/>
<path d="M992 638 c-15 -15 -15 -51 0 -66 15 -15 51 -15 66 0 28 28 7 78 -33
78 -12 0 -26 -5 -33 -12z"/>
<path d="M1276 628 c-13 -19 -14 -25 -2 -43 18 -27 56 -32 73 -9 17 23 16 39
-3 58 -22 22 -50 20 -68 -6z"/>
<path d="M1562 638 c-7 -7 -12 -21 -12 -33 0 -12 5 -26 12 -33 28 -28 78 -7
78 33 0 27 -18 45 -45 45 -12 0 -26 -5 -33 -12z"/>
<path d="M1846 634 c-9 -8 -16 -22 -16 -29 0 -20 28 -45 50 -45 22 0 50 25 50
45 0 20 -28 45 -50 45 -10 0 -26 -7 -34 -16z"/>
<path d="M4492 638 c-28 -28 -7 -78 33 -78 27 0 45 18 45 45 0 27 -18 45 -45
45 -12 0 -26 -5 -33 -12z"/>
<path d="M4776 634 c-19 -18 -20 -28 -6 -55 19 -35 90 -15 90 26 0 20 -28 45
-50 45 -10 0 -26 -7 -34 -16z"/>
<path d="M5062 638 c-28 -28 -7 -78 33 -78 27 0 45 18 45 45 0 27 -18 45 -45
45 -12 0 -26 -5 -33 -12z"/>
<path d="M5346 634 c-19 -18 -20 -28 -6 -55 14 -25 52 -24 75 1 17 18 17 21 1
45 -19 28 -47 32 -70 9z"/>
</g>
</svg>
